<svg id="Layer_1" data-name="Layer 1" xmlns="http://www.w3.org/2000/svg" viewBox="0 0 664.34 203.25"><defs><style>.cls-1{fill:#0b1b2b;}</style></defs><path class="cls-1" d="M721.13,109.67a66.59,66.59,0,0,1-12.37,5.86,58.79,58.79,0,0,1-14.64,3.71c-2.14.36-4.31.67-6.53.9h-.06c-20.54,1.84-38.1-2.51-48.16-11.91-.1-.07-.16-.18-.26-.25,0,.37,0,.74-.05,1.13a17.4,17.4,0,0,0,4.45,11.38c8.18,9.32,23.86,14.36,42.06,14.57,12.13,0,23.19-2.29,31.65-6.39a33.71,33.71,0,0,0,10.56-7.76,17.48,17.48,0,0,0,4.56-11.37,16.33,16.33,0,0,0-1.88-7.58A41.47,41.47,0,0,1,721.13,109.67ZM685.28,96.89c-19.2,1.54-35.75-2-46.06-10.13a17.9,17.9,0,0,0,4.41,10.33c8.17,9.32,23.86,14.34,42,14.56,12.15,0,23.19-2.28,31.64-6.4a33,33,0,0,0,10.57-7.76,17.44,17.44,0,0,0,4.54-11.37,16.61,16.61,0,0,0-2.8-9.19C727,80.46,715.68,94.46,685.28,96.89Zm.52-8.65c12.14,0,23.18-2.28,31.62-6.41A32.91,32.91,0,0,0,728,74.07a16.64,16.64,0,0,0,.1-22.74C719.92,42,704.26,37,686.05,36.77c-12.13,0-23.18,2.27-31.62,6.38a33.43,33.43,0,0,0-10.59,7.76,17.63,17.63,0,0,0-4.56,11.36,17.55,17.55,0,0,0,4.46,11.41C651.9,83,667.6,88,685.8,88.24ZM650.22,53.05c4.41-5.42,18.13-10.73,34.21-10.52,10.75,0,20.4,2.28,26.93,5.59a22,22,0,0,1,7.19,5.25,7,7,0,0,1,2,4.57,7.1,7.1,0,0,1-2,4.56C714.13,67.92,700.39,73.24,684.3,73c-10.75,0-20.4-2.3-26.92-5.59a22.89,22.89,0,0,1-7.2-5.24,7.16,7.16,0,0,1-2-4.6A7,7,0,0,1,650.22,53.05Z" transform="translate(-68.21 -36.77)"/><path class="cls-1" d="M234.9,101.94q-6.5-7.35-18.32-7.32l-36,.13-2.63,13.56,36-.14a10.72,10.72,0,0,1,8.89,3.88,11.32,11.32,0,0,1,2.1,9.61L224.4,124l-.17,1.6-33.36.13a33.5,33.5,0,0,0-21.4,7.74,32.23,32.23,0,0,0-11.85,19.45l-.35,1.43q-2.47,11.76,3.92,19.4t18.24,7.58l47.16-.17,12.51-60.25Q241.38,109.31,234.9,101.94Zm-19.3,65.7-33.36.13a11.27,11.27,0,0,1-9.07-3.88q-3.33-3.9-2.1-9.61l.36-1.43a15.77,15.77,0,0,1,6-9.64,16.85,16.85,0,0,1,10.65-4l33.18-.12Zm100.29-73.4-15,73.41-34.43.13a11.21,11.21,0,0,1-9.07-3.91c-2.23-2.62-2.92-5.85-2.1-9.68l12.15-59.76-13.81,0-12.15,59.76q-2.47,11.85,4,19.53t18.32,7.65l34.61-.13-1.06,5a17.13,17.13,0,0,1-6.14,9.61A16.38,16.38,0,0,1,280.78,200l-47.17.18-2.81,13.63,47.16-.18a32.81,32.81,0,0,0,21.13-8,33.86,33.86,0,0,0,12.12-19.42l18.66-92.07Z" transform="translate(-68.21 -36.77)"/><path class="cls-1" d="M460.11,180.93l-47.16.18q-11.85,0-18.23-7.64t-3.93-19.55l.35-1.44A32.52,32.52,0,0,1,403,132.86a33.41,33.41,0,0,1,21.41-7.8l33.34-.12.18-1.62.53-2.33q1.05-5.76-2.1-9.69a10.67,10.67,0,0,0-8.89-3.91l-38.81.14,2.63-13.66,38.82-.14q11.83,0,18.32,7.38t4.19,19.1Zm-11-13.6,5.63-28.74-33.18.13a16.69,16.69,0,0,0-10.65,4,15.93,15.93,0,0,0-6,9.71l-.34,1.44c-.83,3.83-.13,7.07,2.09,9.69a11.21,11.21,0,0,0,9.07,3.91Z" transform="translate(-68.21 -36.77)"/><path class="cls-1" d="M550.48,157.2a27.26,27.26,0,0,1-12,17.8,35.58,35.58,0,0,1-20.43,6l-46.62.18,2.82-13.64,46.63-.17q13.8-.06,15.74-10.1l.71-3.23q2.1-10-11.7-10l-21,.08q-11.65,0-18-5.85-7.19-6.42-4.91-17.73l.71-3.23a27.18,27.18,0,0,1,11.95-17.8,35.76,35.76,0,0,1,20.42-6l46.8-.17L559.07,107l-46.8.18q-13.81,0-15.93,10.1l-.7,3.23q-1.93,10.05,11.88,10l21-.08q11.64,0,18,5.85,7,6.42,4.73,17.74Z" transform="translate(-68.21 -36.77)"/><path class="cls-1" d="M613.58,181l-21.88.08q-11.84,0-18.31-7.7t-4-19.68l9.51-47.19-8.61,0,3-14.1,8.61,0,6.34-31.46,14,0-6.34,31.46,29-.11-3,14.1-29,.11-9.51,47.19c-.82,3.85-.15,7.11,2,9.75a10.94,10.94,0,0,0,9,3.94l21.87-.08Z" transform="translate(-68.21 -36.77)"/><path class="cls-1" d="M172.23,102.4a31.93,31.93,0,0,1-11.86,19,32.81,32.81,0,0,1-20.92,7.8l-47,.17-10.59,52-13.62,0L92.35,64.12,153,63.9q11.32,0,17.63,7.64t4,18.93Zm-13.61,0,2.43-11.93q1.22-5.61-2-9.46a10.83,10.83,0,0,0-8.86-3.83l-47,.18-8,38.6,47-.17a16.22,16.22,0,0,0,10.41-3.9A16.44,16.44,0,0,0,158.62,102.45Z" transform="translate(-68.21 -36.77)"/><path class="cls-1" d="M435.77,75.17l-57.13.21A18,18,0,0,0,361.78,89.1l-5.24,26.09,35.65-.14-2.83,13.84-35.47.13L343.07,181.3l-13.85.06,18.71-92.21a34.87,34.87,0,0,1,33.53-27.43l57.13-.21Z" transform="translate(-68.21 -36.77)"/><path class="cls-1" d="M337.45,223.65H324.66l-2.9,7.91h-2.49l10.65-28.16h2.27l10.65,28.16h-2.47Zm-12.05-2h11.29l-5.64-15.34Z" transform="translate(-68.21 -36.77)"/><path class="cls-1" d="M356.09,231.56V203.4h8.32a13.06,13.06,0,0,1,6.63,1.66,11.4,11.4,0,0,1,4.48,4.72,15.07,15.07,0,0,1,1.58,7v1.41a15,15,0,0,1-1.59,7,11.25,11.25,0,0,1-4.55,4.69,13.72,13.72,0,0,1-6.76,1.64Zm4.9-24.22v20.31h3.19a7.33,7.33,0,0,0,5.91-2.41c1.37-1.6,2.07-3.91,2.1-6.91v-1.57c0-3-.67-5.39-2-7a7.08,7.08,0,0,0-5.79-2.42Z" transform="translate(-68.21 -36.77)"/><path class="cls-1" d="M386.87,221.11v10.45H382V203.4h10.77a10.94,10.94,0,0,1,7.5,2.45,8.27,8.27,0,0,1,2.77,6.51,8,8,0,0,1-2.72,6.45c-1.81,1.54-4.35,2.3-7.61,2.3Zm0-3.94h5.88a5.77,5.77,0,0,0,4-1.23,4.5,4.5,0,0,0,1.38-3.55,4.91,4.91,0,0,0-1.39-3.65,5.44,5.44,0,0,0-3.83-1.4h-6Z" transform="translate(-68.21 -36.77)"/><path class="cls-1" d="M429.77,218.21a17.24,17.24,0,0,1-1.43,7.27,10.78,10.78,0,0,1-4.09,4.79,12,12,0,0,1-12.22,0,10.91,10.91,0,0,1-4.14-4.76,16.65,16.65,0,0,1-1.48-7.14v-1.59a17,17,0,0,1,1.46-7.27,11,11,0,0,1,4.12-4.83,12,12,0,0,1,12.2,0,10.74,10.74,0,0,1,4.11,4.76,17,17,0,0,1,1.47,7.23Zm-4.89-1.47q0-4.68-1.77-7.17a6.24,6.24,0,0,0-10,0,12.11,12.11,0,0,0-1.83,7v1.62q0,4.65,1.81,7.18a5.81,5.81,0,0,0,5,2.53,5.75,5.75,0,0,0,5-2.47c1.17-1.65,1.75-4.07,1.75-7.24Z" transform="translate(-68.21 -36.77)"/><path class="cls-1" d="M465.09,222.78a10.11,10.11,0,0,1-3.18,6.81,10.53,10.53,0,0,1-7.18,2.36,10,10,0,0,1-5.55-1.57,10.21,10.21,0,0,1-3.72-4.44,15.69,15.69,0,0,1-1.33-6.57v-3.65a16,16,0,0,1,1.31-6.66,10.16,10.16,0,0,1,3.78-4.47A10.26,10.26,0,0,1,454.9,203a9.39,9.39,0,0,1,10.19,9.19H462.7q-.9-7.19-7.8-7.18a7.38,7.38,0,0,0-6.1,2.87c-1.52,1.91-2.28,4.54-2.28,7.91v3.45a12.48,12.48,0,0,0,2.22,7.78,7.12,7.12,0,0,0,6,2.9,7.94,7.94,0,0,0,5.63-1.78,8.65,8.65,0,0,0,2.34-5.37Z" transform="translate(-68.21 -36.77)"/><path class="cls-1" d="M469.06,220.79a12.31,12.31,0,0,1,1.17-5.44,8.82,8.82,0,0,1,8.15-5.11,8.6,8.6,0,0,1,6.77,2.93,11.31,11.31,0,0,1,2.6,7.77v.48a12.3,12.3,0,0,1-1.18,5.47,8.71,8.71,0,0,1-3.29,3.74,9,9,0,0,1-4.86,1.32,8.64,8.64,0,0,1-6.76-2.93,11.31,11.31,0,0,1-2.6-7.77Zm2.32.63a9.55,9.55,0,0,0,1.94,6.17,6.6,6.6,0,0,0,10.18,0,9.81,9.81,0,0,0,1.94-6.36v-.44a10.58,10.58,0,0,0-.89-4.4,7.16,7.16,0,0,0-2.49-3.08,6.38,6.38,0,0,0-3.68-1.09,6.22,6.22,0,0,0-5.05,2.42,9.85,9.85,0,0,0-1.95,6.36Z" transform="translate(-68.21 -36.77)"/><path class="cls-1" d="M494.63,210.63l.08,3.4a7.73,7.73,0,0,1,2.9-2.84,8,8,0,0,1,3.87-.95q4.95,0,6.29,4.07a7.73,7.73,0,0,1,3-3,8.23,8.23,0,0,1,4.14-1.06q6.74,0,6.87,7.35v14h-2.32V217.77a6.24,6.24,0,0,0-1.21-4.16,4.93,4.93,0,0,0-3.88-1.35,6.11,6.11,0,0,0-4.21,1.61,5.7,5.7,0,0,0-1.92,3.84v13.85h-2.32v-14a5.72,5.72,0,0,0-1.27-4,5,5,0,0,0-3.84-1.32,5.82,5.82,0,0,0-3.75,1.24,7.26,7.26,0,0,0-2.32,3.71v14.35h-2.32V210.63Z" transform="translate(-68.21 -36.77)"/><path class="cls-1" d="M544.46,221.31a12.54,12.54,0,0,1-2.17,7.76,6.89,6.89,0,0,1-5.8,2.88,7.77,7.77,0,0,1-6.58-3v10.68h-2.3v-29h2.15l.12,3a7.41,7.41,0,0,1,6.55-3.35,7,7,0,0,1,5.89,2.85q2.14,2.83,2.14,7.89Zm-2.32-.41a10.7,10.7,0,0,0-1.65-6.32,5.28,5.28,0,0,0-4.58-2.32,6.44,6.44,0,0,0-3.66,1,6.56,6.56,0,0,0-2.34,3v10a6.24,6.24,0,0,0,2.38,2.75A6.87,6.87,0,0,0,536,230a5.23,5.23,0,0,0,4.55-2.33C541.59,226.11,542.14,223.85,542.14,220.9Z" transform="translate(-68.21 -36.77)"/><path class="cls-1" d="M562.8,231.56a10.82,10.82,0,0,1-.45-2.92,8.13,8.13,0,0,1-3.1,2.45,9.59,9.59,0,0,1-4,.86,7,7,0,0,1-4.88-1.69A5.46,5.46,0,0,1,548.5,226a5.61,5.61,0,0,1,2.55-4.84,12.26,12.26,0,0,1,7.09-1.78h4.19V217a4.6,4.6,0,0,0-1.38-3.53,5.75,5.75,0,0,0-4-1.28,6.35,6.35,0,0,0-4,1.23,3.7,3.7,0,0,0-1.58,3l-2.32,0a5.38,5.38,0,0,1,2.32-4.32,8.91,8.91,0,0,1,5.7-1.83,8.2,8.2,0,0,1,5.53,1.75,6.29,6.29,0,0,1,2.07,4.89v9.9a12.42,12.42,0,0,0,.64,4.55v.23Zm-7.28-1.66a7.76,7.76,0,0,0,4.15-1.13,6.52,6.52,0,0,0,2.66-3v-4.61h-4.14a10.37,10.37,0,0,0-5.41,1.27,3.9,3.9,0,0,0-.65,6.3A4.93,4.93,0,0,0,555.52,229.9Z" transform="translate(-68.21 -36.77)"/><path class="cls-1" d="M573,210.63l.08,3.58a8.23,8.23,0,0,1,2.94-3,7.61,7.61,0,0,1,3.89-1,6.3,6.3,0,0,1,5,1.9c1.09,1.26,1.65,3.16,1.66,5.69v13.73h-2.3V217.81a6.43,6.43,0,0,0-1.19-4.18,4.64,4.64,0,0,0-3.74-1.37,5.85,5.85,0,0,0-3.81,1.34,7.88,7.88,0,0,0-2.44,3.63v14.33h-2.3V210.63Z" transform="translate(-68.21 -36.77)"/><path class="cls-1" d="M599.2,228.23l6.11-17.6h2.5l-8.94,24.49-.46,1.08q-1.73,3.81-5.32,3.81a6.47,6.47,0,0,1-1.78-.27l0-1.91,1.2.11a4.28,4.28,0,0,0,2.75-.84,6.3,6.3,0,0,0,1.79-2.89l1-2.82-7.89-20.76h2.53Z" transform="translate(-68.21 -36.77)"/></svg>